<svg width="39" height="40" viewBox="0 0 39 40" fill="none" xmlns="http://www.w3.org/2000/svg">
<path d="M19.8188 17.984C21.022 11.8696 19.3136 5.49407 15.2145 0.800427C14.0114 6.9148 15.7197 13.2904 19.8188 17.984Z" fill="#00B311"/>
<path d="M20.8948 21.598C25.126 18.7029 27.853 13.9796 28.2446 8.86774C24.0133 11.7628 21.2863 16.4861 20.8948 21.598Z" fill="#00B311"/>
<path d="M22.2129 28.7197C26.4441 25.8246 29.1711 21.1014 29.5627 15.9895C25.3315 18.8845 22.6045 23.6078 22.2129 28.7197Z" fill="#00B311"/>
<path d="M23.0706 35.8537C26.9543 33.1964 29.4573 28.8612 29.8167 24.1692C25.933 26.8264 23.43 31.1617 23.0706 35.8537Z" fill="#00B311"/>
<path d="M22.9724 35.8801C18.2804 35.5207 13.9452 33.0177 11.2879 29.134C15.9798 29.4934 20.3151 31.9964 22.9724 35.8801Z" fill="#00B311"/>
<path d="M22.2129 28.7197C16.6818 28.296 11.5712 25.3453 8.43867 20.7671C13.9697 21.1908 19.0803 24.1414 22.2129 28.7197Z" fill="#00B311"/>
<path d="M20.5522 21.3302C15.4403 20.9386 10.7171 18.2116 7.82197 13.9803C12.9338 14.3719 17.6571 17.0989 20.5522 21.3302Z" fill="#00B311"/>
<path d="M16.0451 10.2528C16.1203 10.1226 16.1456 9.96383 16.1034 9.80725L16.094 9.77237C16.0097 9.45997 15.6881 9.27497 15.3756 9.35925C15.0632 9.44353 14.8783 9.76511 14.9625 10.0775L14.9719 10.1124C15.0562 10.4248 15.3778 10.6098 15.6903 10.5255C15.8462 10.4835 15.9703 10.3824 16.0451 10.2528Z" fill="#00730B"/>
<path d="M20.071 8.70782C19.2523 5.65258 17.7256 2.78497 15.6558 0.414971C15.5088 0.246673 15.2787 0.176584 15.0628 0.234447C14.8469 0.29231 14.6828 0.468004 14.6395 0.68728C14.1604 3.12251 14.1229 5.60458 14.5281 8.0647C14.5807 8.38402 14.8822 8.60023 15.2015 8.54763C15.5207 8.4951 15.7371 8.19363 15.6844 7.8743C15.372 5.97745 15.3384 4.06703 15.5831 2.1784C18.7003 6.2689 20.1033 11.5053 19.4491 16.6064C18.3222 15.1314 17.4132 13.5053 16.7401 11.7576C16.6238 11.4557 16.2847 11.3051 15.9827 11.4215C15.6806 11.5377 15.5302 11.8769 15.6465 12.1788C16.5237 14.4565 17.779 16.5393 19.3774 18.3696C19.3943 18.3888 19.4124 18.4064 19.4313 18.4231C19.4989 18.6863 19.5655 18.9497 19.6309 19.2133C18.3908 17.8322 16.9256 16.6401 15.3112 15.708C13.0359 14.3944 10.4616 13.595 7.86653 13.3961C7.64176 13.3789 7.42705 13.4922 7.31435 13.6874C7.20164 13.8826 7.21089 14.1252 7.3382 14.3112C8.80792 16.4593 10.7874 18.2889 13.0627 19.6026C15.2646 20.8738 17.7465 21.6635 20.2563 21.8932C20.5841 23.3927 20.8765 24.8987 21.1333 26.4092C19.8049 24.9408 18.2402 23.6723 16.5182 22.6781C14.0624 21.2603 11.2841 20.3975 8.48327 20.1829C8.25849 20.1657 8.04379 20.279 7.93108 20.4742C7.81838 20.6694 7.82762 20.912 7.95493 21.098C9.54117 23.4163 11.6775 25.3911 14.1332 26.8089C16.4151 28.1263 18.9756 28.9641 21.5738 29.2483C21.7878 30.7771 21.9652 32.3094 22.1059 33.843C20.9763 32.598 19.6478 31.522 18.186 30.6781C16.0914 29.4688 13.7215 28.7328 11.3325 28.5499C11.1078 28.5326 10.8931 28.6459 10.7803 28.8411C10.6676 29.0364 10.6769 29.2789 10.8042 29.465C12.1572 31.4424 13.9794 33.1269 16.074 34.3361C17.9868 35.4405 20.1294 36.1486 22.3064 36.4028C22.3543 37.1398 22.3942 37.8768 22.4251 38.6138C22.4386 38.9371 22.7117 39.1882 23.035 39.1746C23.2431 39.166 23.4213 39.0497 23.5183 38.8818C23.572 38.7887 23.6008 38.6799 23.596 38.5647C23.5642 37.8054 23.5229 37.046 23.4732 36.2867C25.4194 34.9389 27.078 33.1364 28.2725 31.0675C29.4818 28.973 30.2177 26.6031 30.4008 24.214C30.418 23.9893 30.3048 23.7746 30.1095 23.6618C29.9142 23.5491 29.6717 23.5584 29.4857 23.6857C27.5082 25.0387 25.8238 26.861 24.6145 28.9556C23.9933 30.0315 23.4981 31.1804 23.1374 32.3669C23.021 31.2674 22.886 30.1689 22.7323 29.0722C24.7988 27.6169 26.56 25.6872 27.835 23.4789C29.1486 21.2037 29.948 18.6294 30.1468 16.0343C30.164 15.8095 30.0508 15.5948 29.8555 15.4821C29.6603 15.3693 29.4177 15.3786 29.2317 15.5059C27.0837 16.9756 25.254 18.9551 23.9403 21.2304C23.1641 22.5749 22.5675 24.0239 22.1682 25.52C21.9547 24.3157 21.7188 23.1145 21.4607 21.9173C22.8953 20.9006 24.1677 19.673 25.2451 18.2641C25.2609 18.2435 25.275 18.2223 25.2875 18.2005C25.4325 17.9493 25.3721 17.6235 25.1356 17.4427C24.8786 17.2461 24.5108 17.2951 24.3143 17.5521C23.528 18.5804 22.6308 19.5053 21.6371 20.3132C22.2778 16.3494 24.3906 12.69 27.5029 10.1533C27.3032 11.3979 26.9586 12.6185 26.4735 13.7963C26.3503 14.0955 26.493 14.438 26.7922 14.5612C27.0915 14.6845 27.4334 14.5414 27.5571 14.2426C28.2608 12.5339 28.6886 10.7406 28.8287 8.91262C28.8459 8.68787 28.7327 8.47316 28.5374 8.36043C28.3422 8.2477 28.0996 8.25697 27.9136 8.38428C25.7656 9.85395 23.9359 11.8335 22.6223 14.1087C21.7723 15.5809 21.1379 17.1784 20.7419 18.8256C20.6506 18.4594 20.5576 18.0936 20.4622 17.7284C20.9909 14.752 20.8571 11.6416 20.071 8.70782ZM9.10828 14.723C13.071 15.3639 16.7296 17.476 19.2658 20.5874C15.3031 19.9468 11.6447 17.8344 9.10828 14.723ZM9.71451 21.5037C14.1026 22.181 18.1564 24.5215 20.937 27.983C16.549 27.3059 12.4951 24.9653 9.71451 21.5037ZM12.5872 29.8842C16.1223 30.4873 19.3831 32.37 21.673 35.1299C18.138 34.5268 14.8771 32.6441 12.5872 29.8842ZM29.0665 25.4686C28.4634 29.0038 26.5808 32.2646 23.8209 34.5544C24.424 31.0194 26.3066 27.7585 29.0665 25.4686ZM28.8201 17.2758C28.1794 21.2389 26.0674 24.897 22.9556 27.4334C23.5964 23.4703 25.7084 19.8123 28.8201 17.2758Z" fill="#00730B"/>
<path d="M25.5895 15.6179C25.4316 15.9004 25.5327 16.2575 25.8152 16.4153C26.0953 16.5718 26.4485 16.4738 26.6084 16.1969C26.6097 16.1945 26.6112 16.192 26.6125 16.1896L26.6245 16.1683C26.7823 15.8859 26.6813 15.5288 26.3988 15.371C26.1163 15.2131 25.7575 15.3135 25.6015 15.5966L25.5895 15.6179Z" fill="#00730B"/>
</svg>
